<svg width="20" height="20" viewBox="0 0 20 20" fill="none" xmlns="http://www.w3.org/2000/svg">
<path d="M6.25 6.24994V3.74994C6.25001 3.3111 6.36553 2.88 6.58496 2.49996C6.80439 2.11992 7.11998 1.80433 7.50003 1.58492C7.88007 1.36551 8.31118 1.25 8.75002 1.25C9.18885 1.25 9.61996 1.36552 10 1.58494C10.38 1.36552 10.8111 1.25 11.25 1.25C11.6888 1.25 12.1199 1.36551 12.5 1.58492C12.88 1.80433 13.1956 2.11992 13.415 2.49996C13.6345 2.88 13.75 3.3111 13.75 3.74994V6.24994H14.375C14.8723 6.24994 15.3492 6.44748 15.7008 6.79911C16.0525 7.15074 16.25 7.62766 16.25 8.12494V16.2499C16.25 16.913 15.9866 17.5489 15.5178 18.0177C15.0489 18.4865 14.413 18.7499 13.75 18.7499H6.25C5.58696 18.7499 4.95107 18.4865 4.48223 18.0177C4.01339 17.5489 3.75 16.913 3.75 16.2499V8.12494C3.75 7.62766 3.94754 7.15074 4.29917 6.79911C4.65081 6.44748 5.12772 6.24994 5.625 6.24994H6.25ZM7.5 3.74994V6.24994H10V3.74994C10 3.41842 9.8683 3.10047 9.63388 2.86605C9.39946 2.63163 9.08152 2.49994 8.75 2.49994C8.41848 2.49994 8.10054 2.63163 7.86612 2.86605C7.6317 3.10047 7.5 3.41842 7.5 3.74994ZM13.75 17.4999C14.0815 17.4999 14.3995 17.3682 14.6339 17.1338C14.8683 16.8994 15 16.5815 15 16.2499V8.12494C15 7.95918 14.9342 7.80021 14.8169 7.683C14.6997 7.56578 14.5408 7.49994 14.375 7.49994H12.5V16.2499C12.5 16.5815 12.6317 16.8994 12.8661 17.1338C13.1005 17.3682 13.4185 17.4999 13.75 17.4999ZM11.25 7.49994H5.625C5.45924 7.49994 5.30027 7.56578 5.18306 7.683C5.06585 7.80021 5 7.95918 5 8.12494V16.2499C5 16.5815 5.1317 16.8994 5.36612 17.1338C5.60054 17.3682 5.91848 17.4999 6.25 17.4999H11.585C11.365 17.1201 11.2494 16.6889 11.25 16.2499V7.49994ZM11.25 3.74994V6.24994H12.5V3.74994C12.5001 3.55908 12.4566 3.37073 12.3727 3.19932C12.2887 3.02792 12.1667 2.878 12.0158 2.76107C11.865 2.64414 11.6894 2.5633 11.5025 2.52476C11.3156 2.48621 11.1223 2.49097 10.9375 2.53869C11.1375 2.89744 11.25 3.31119 11.25 3.74994Z" fill="white"/>
</svg>
