<svg width="964" height="150" viewBox="0 0 864 152" fill="white" xmlns="http://www.w3.org/2000/svg"><path d="M0 76C0 125.46 42.4232 152 78.8148 152C110.783 152 132.899 138.529 148.381 119.429L128.677 76C122.645 83.6402 104.751 104.952 81.4285 104.952C60.9206 104.952 50.6666 90.4762 50.6666 76C50.6666 61.5238 60.9206 46.8466 81.4285 46.8466C89.2698 46.8466 95.7037 52.8783 95.7037 61.7249C95.7037 67.5556 92.8889 74.5926 85.8518 81.8307C115.608 65.746 129.883 46.4444 129.883 30.5609C129.883 13.0688 112.391 0 79.2169 0C43.0264 0 0 26.5397 0 76ZM168.947 146.37H218.206V82.4339H234.693C232.884 89.0688 232.079 95.3016 232.079 100.931C232.079 129.683 253.391 147.175 272.693 147.175C318.534 147.175 337.836 75.5979 341.656 71.5767C326.577 90.2751 302.45 103.545 280.333 103.545C265.254 103.545 251.18 97.5132 241.328 82.4339H257.212C288.778 82.4339 304.46 63.3333 304.46 44.0317C304.46 24.9312 288.778 5.62963 257.212 5.62963H168.947V146.37ZM218.206 45.6402H242.735C249.772 45.6402 253.19 52.4762 253.19 59.1111C253.19 65.746 249.772 72.381 242.735 72.381H218.206V45.6402ZM387.849 106.159V97.3122C388.854 81.6296 400.114 73.9894 408.558 73.9894C413.786 73.9894 418.008 76.8042 418.008 82.836C418.008 87.4603 415.394 94.0952 408.558 102.339C433.489 96.1058 446.357 80.2222 446.357 67.5555C446.357 58.1058 439.119 50.6667 424.442 50.6667C411.172 50.6667 392.272 61.9259 387.849 84.6455V45.8413H466.061V5.62963H338.59V146.37H467.267V106.159H387.849ZM545.441 3.61905C538.001 20.1058 486.33 78.6138 486.33 116.614C486.33 133.503 496.583 150.593 526.139 150.593C557.705 150.593 577.007 111.788 577.007 86.8571C577.007 81.8307 576.203 77.4074 574.594 73.9894C575.8 92.8889 557.102 107.164 543.832 107.164C532.573 107.164 523.927 97.7143 523.927 80.6243C523.927 65.1428 530.964 43.4286 550.065 16.4868L551.271 20.1058L605.959 146.37H658.636L596.509 3.61905H545.441ZM679.839 146.37H729.098V31.3651C749.405 51.873 758.654 79.418 758.654 103.143C758.654 121.64 753.024 137.725 742.368 146.37C748.199 147.175 753.426 147.376 758.252 147.376C787.003 147.376 797.86 134.709 797.86 116.614C797.86 109.979 796.252 102.54 793.839 94.8995C792.029 89.0688 791.225 82.6349 791.225 76.4021C791.225 58.3069 798.664 39.8095 813.744 28.3492V146.37H863.003V5.62963H813.744C795.045 19.5027 778.156 37.5979 773.733 55.291C760.061 34.7831 743.172 16.0847 729.098 5.62963H679.839V146.37Z"></path></svg>