<svg width="666" height="155" viewBox="0 0 666 152" fill="white" xmlns="http://www.w3.org/2000/svg"><path d="M0 2.06241V43.3107H90.7463C55.6853 59.1913 41.8671 82.9091 41.8671 103.739C41.8671 128.488 61.0475 149.319 86.209 149.319C106.833 149.319 127.045 135.294 137.357 105.183C127.87 110.133 119.207 112.195 111.37 112.195C92.19 112.195 79.6093 98.7897 79.6093 81.2592C79.6093 69.5034 85.384 55.8915 98.3773 43.3107H161.281V2.06241H0ZM181.303 146.431H231.832V80.8467H248.744C246.887 87.6527 246.062 94.0462 246.062 99.8209C246.062 129.313 267.924 147.256 287.723 147.256C334.746 147.256 354.546 73.8345 358.464 69.7096C342.996 88.8901 318.247 102.502 295.56 102.502C280.092 102.502 265.655 96.3148 255.55 80.8467H271.843C304.223 80.8467 320.309 61.2537 320.309 41.4546C320.309 21.8616 304.223 2.06241 271.843 2.06241H181.303V146.431ZM231.832 43.1045H256.993C264.212 43.1045 267.718 50.1167 267.718 56.9227C267.718 63.7286 264.212 70.5346 256.993 70.5346H231.832V43.1045ZM353.257 84.1466C353.257 129.313 391.411 152 429.566 152C467.514 152 505.669 129.313 505.669 84.1466C505.669 60.8413 481.333 38.3609 481.333 21.6554C481.333 15.6744 488.345 6.59973 501.132 6.59973C506.082 6.59973 511.856 8.04343 518.456 11.3433C508.969 3.71235 496.388 0 484.22 0C462.152 0 440.909 11.962 440.909 32.7924C440.909 47.0231 454.934 68.4722 454.934 84.1466C454.934 99.2022 443.797 105.389 432.041 105.389C418.429 105.389 403.786 97.1398 403.786 84.1466V2.06241H353.257V84.1466ZM584.093 105.183V96.1086C585.125 80.0217 596.674 72.1845 605.336 72.1845C610.699 72.1845 615.03 75.0719 615.03 81.2592C615.03 86.0027 612.348 92.8087 605.336 101.265C630.91 94.8711 644.11 78.578 644.11 65.5848C644.11 55.8915 636.685 48.2605 621.629 48.2605C608.017 48.2605 588.631 59.8101 584.093 83.1153V43.3107H664.321V2.06241H533.564V146.431H665.559V105.183H584.093Z"></path></svg>