<svg width="373" height="152" viewBox="0 0 373 152" fill="white" xmlns="http://www.w3.org/2000/svg"><path d="M0 146.37H49.2593V5.62963H0V146.37ZM74.5219 76C74.5219 125.46 116.945 152 153.337 152C185.305 152 207.422 138.529 222.903 119.429L203.199 76C197.168 83.6402 179.274 104.952 155.951 104.952C135.443 104.952 125.189 90.4762 125.189 76C125.189 61.5238 135.443 46.8466 155.951 46.8466C163.792 46.8466 170.226 52.8783 170.226 61.7249C170.226 67.5556 167.411 74.5926 160.374 81.8307C190.131 65.746 204.406 46.4444 204.406 30.5609C204.406 13.0688 186.914 0 153.739 0C117.549 0 74.5219 26.5397 74.5219 76ZM292.729 106.159V97.3122C293.734 81.6296 304.993 73.9894 313.438 73.9894C318.665 73.9894 322.887 76.8042 322.887 82.836C322.887 87.4603 320.274 94.0952 313.438 102.339C338.369 96.1058 351.237 80.2222 351.237 67.5556C351.237 58.1058 343.999 50.6667 329.32 50.6667C316.051 50.6667 297.152 61.9259 292.729 84.6455V45.8413H370.94V5.62963H243.469V146.37H372.147V106.159H292.729Z"></path></svg>