<?xml version="1.0" encoding="UTF-8"?>
<svg version="1.1" viewBox="0 0 1988 2048" width="500" height="500" xmlns="http://www.w3.org/2000/svg">
<path transform="translate(847,595)" d="m0 0h77l45 3 32 4 27 6 33 9 38 13 26 11 25 12 22 11 21 12 16 10 16 11 14 10 16 12 14 11 14 13 8 7 17 16 11 11 7 8 14 15 9 11 13 16 12 17 14 20 12 20 13 23 12 23 12 27 10 26 12 36 10 38 9 51 3 22 2 27v57l-2 34-4 30-8 45-9 35-8 25-11 30-11 26-15 31-13 23-12 20-16 24-14 18-11 14-14 17-11 12-30 30-8 7-10 9-28 22-16 12-18 12-24 15-27 15-28 14-32 13-34 12-23 7-32 8-31 6-29 3-15 1-33 1h-49l-33-1-28-2-26-4-43-10-43-14-24-9-36-16-26-13-24-14-17-11-16-11-17-12-13-10-13-11-14-12-17-16-27-27-9-11-9-10-11-14-14-19-14-20-14-23-12-21-14-28-13-30-10-27-10-30-10-39-7-36-4-27-2-24v-77l2-32 4-29 9-43 10-37 10-30 11-28 11-24 8-16 16-30 12-19 10-15 13-18 11-15 7-9 11-13 12-13 13-13 7-8 4-4h2l2-4 24-22 14-11 18-14 19-13 14-10 26-16 26-14 16-8 22-10 28-11 36-12 34-9 20-4 31-4 26-2zm35 345-25 2-20 4-16 6-16 9-16 13-10 10-11 15-11 21-6 16-5 22-2 13-2 37-1 130v61l1 22 3 19 11 33 10 19 10 13 16 16 17 12 15 7 18 6 30 8h3l2-48v-26l-1-11-5-5-11-8-7-6-9-14-3-9-2-15v-230l2-15 4-10 8-13 3-3v-2l4-2 7-6 12-5 5-1h16l13 4 8 6 8 8 7 12 4 11 2 11 1 12v205l-2 28-4 16-8 12-4 4v2l-18 9-1 18v51l2 17 1 2h8l19-5 21-7 17-9 14-10 12-11 10-11 10-16 10-21 5-17 4-22 2-27v-195l-2-28-3-20-7-24-7-17-8-15-10-14-4-5h-2l-1-3-11-9-10-7-17-9-18-6-16-3-28-2z" fill="#A10F2E"/>
<path transform="translate(912,1030)" d="m0 0 6 1 12 12 7 12 4 11 2 11 1 12v205l-2 28-4 16-8 12-5 6-7 5h-5l-1-3 2-7-5-2-5 2-3 2-4-4 1-6-7-2 1-3 2-1v-6l-2-6h-2l-1-5h2v-6l5-3-1-11 3-3-1-12 1-8 4-2h3l2-5 3-3v2l6-2v2l6 1 1-4h-2l-2-2h-2l-1-3h6l2-5 4-4-2-7-2-2 1-7-1-6 2-4 2-1v-11l1-3-2-6 1-7 1-5v-12l-2-1v-3l4-1-2-5-2-10-2-6h-2l1-5 2-3 1-8-3-7 3-3v-3l-3-1-8-8 1-4h2v-2h2v-8l2-3h-2v-2h-2v-3h-2l-4-4-2-1-1-6h2l-2-5 1-1-9-2v-5l-2-4h2l-1-6-2-5 2-2v-7l-4-2 1-3h2l1-4h2v-2h8v-5z" fill="#8F0B29"/>
<path transform="translate(739,1122)" d="m0 0 2 1v91l1 85 1 22 3 19 11 33 10 19 10 13 15 15 3 2-1 3h-9-1l-1-3-6-1-5-5h-4l-2-5-7-1-4-10-3-6-2-1-1-4-4-6h-1l-2-18-3-5-1-4-4-3-2-5-4-1v-2h-2l-4-17-1-7-1-6 3-9v-10l-1-6 2-10-1-1v-5l1-2v-7l4-2v-4h-2l-2-3v-8h2l1-6-1-1v-7l4-9 2-4-2-4 1-7 2-7 2-2-3-1-1-4 2-9 2 1v-16l1-8-1-3 2-11v-5-4-7l1-3-1-5z" fill="#8F0B29"/>
<path transform="translate(1405,900)" d="m0 0 5 1 15 29 12 27 10 26 12 36 6 22v4h-2l-5-7-3-7v-4h-2l-2-13-2-3v-7h-2l-5-16-1-5h-2l-1-6v-4-3l-3-1v-4h-2l-2-8v-3l-6-7-3-7-1-5-4-9-3-6-2-1-4-13-3-4z" fill="#910B29"/>
<path transform="translate(1275,738)" d="m0 0 4 1 15 14 13 12 12 12 7 8 14 15 9 11 2 2v3l-5-1-6-4-4-5-5-4-5-5-6-7-2-1v-2l-4-2-5-5-7-6-5-4-1-4h-2l-7-8-5-4-2-5-5-5v-4z" fill="#900B29"/>
<path transform="translate(1359,827)" d="m0 0h3l12 17 14 20 11 18-1 4-5-4-3-1v-2h-2l-1-4-4-4-4-9-6-4-7-11-5-8-3-6z" fill="#910B29"/>
<path transform="translate(902,1392)" d="m0 0h3l1 52-5-1-2-1-1-10-3-4 3-7-2-10h-1l-1-6 1-4h2l1-2v2l2-1 1-7z" fill="#8F0B29"/>
<path transform="translate(1461,1046)" d="m0 0h4l3 7 6 31 2 12v5l-3 2v-2h-3l-2-4v-10l-1-2v-17l-3-4-1-5-2-3-1-8z" fill="#910B29"/>
<path transform="translate(1405,900)" d="m0 0 5 1 15 29 11 25-1 2-8-7-5-10-1-5-4-9-3-6-2-1-4-13-3-4z" fill="#920C2A"/>
<path transform="translate(901,1332)" d="m0 0 5 1 1 6-2 2-4 1v-3l-4 1-1-3 1-2h5z" fill="#A10F2E"/>
<path transform="translate(909,1254)" d="m0 0 2 4 2-1v8h2v2l-4-1v-3l-4-2-1-4z" fill="#8F0B29"/>
</svg>
